<?xml version="1.0" encoding="UTF-8"?>
<!DOCTYPE svg PUBLIC "-//W3C//DTD SVG 1.1//EN" "http://www.w3.org/Graphics/SVG/1.1/DTD/svg11.dtd">
<svg xmlns="http://www.w3.org/2000/svg" version="1.1" width="1786px" height="820px" style="shape-rendering:geometricPrecision; text-rendering:geometricPrecision; image-rendering:optimizeQuality; fill-rule:evenodd; clip-rule:evenodd" xmlns:xlink="http://www.w3.org/1999/xlink">
<g><path style="opacity:0.993" fill="#fdfdfd" d="M 1460.5,-0.5 C 1465.17,-0.5 1469.83,-0.5 1474.5,-0.5C 1486.07,2.56962 1493.57,9.90296 1497,21.5C 1497.33,28.5 1497.67,35.5 1498,42.5C 1505.46,41.2498 1512.96,41.2498 1520.5,42.5C 1517.24,19.2892 1527.07,5.95586 1550,2.5C 1561.25,3.847 1572.42,5.68033 1583.5,8C 1596.17,13.0097 1603.17,22.343 1604.5,36C 1603.51,43.2995 1601.51,50.2995 1598.5,57C 1608.39,59.6958 1617.55,63.8625 1626,69.5C 1629.67,63.1667 1633.33,56.8333 1637,50.5C 1647.11,40.3497 1658.95,37.8497 1672.5,43C 1683.48,49.7439 1693.65,57.5773 1703,66.5C 1713.27,83.4704 1710.77,98.3038 1695.5,111C 1700.7,115.865 1705.53,121.032 1710,126.5C 1716.21,120.625 1722.71,115.125 1729.5,110C 1743.8,104.988 1755.96,108.154 1766,119.5C 1770.42,126.672 1775.09,133.672 1780,140.5C 1782.55,145.017 1784.39,149.684 1785.5,154.5C 1785.5,157.167 1785.5,159.833 1785.5,162.5C 1783.86,170.337 1779.86,176.837 1773.5,182C 1747.95,194.273 1722.29,206.273 1696.5,218C 1693.9,218.92 1691.23,219.587 1688.5,220C 1697.67,234.182 1704.84,249.349 1710,265.5C 1749.28,324.206 1759.95,387.873 1742,456.5C 1728.97,500.754 1704.8,537.588 1669.5,567C 1651.5,579.667 1633.5,592.333 1615.5,605C 1609.36,610.134 1603.53,615.634 1598,621.5C 1591.89,631.394 1586.55,641.728 1582,652.5C 1580,655.167 1578,657.833 1576,660.5C 1572.44,669.948 1569.77,679.615 1568,689.5C 1566.45,695.489 1564.11,701.156 1561,706.5C 1560.35,725.638 1552.85,741.471 1538.5,754C 1528.37,761.458 1517.7,768.125 1506.5,774C 1491.22,779.636 1475.56,780.97 1459.5,778C 1433.14,770.601 1406.8,763.101 1380.5,755.5C 1319.28,763.117 1257.95,769.783 1196.5,775.5C 1204.49,766.173 1212.83,757.173 1221.5,748.5C 1266.52,744.236 1311.52,739.736 1356.5,735C 1365.07,734.252 1373.41,732.419 1381.5,729.5C 1386.02,731.589 1390.69,733.422 1395.5,735C 1419.25,741.285 1442.92,747.952 1466.5,755C 1479.95,756.759 1492.62,754.426 1504.5,748C 1510.82,742.841 1517.48,738.174 1524.5,734C 1533.81,724.06 1537.98,712.226 1537,698.5C 1542.99,690.185 1545.99,680.852 1546,670.5C 1549.93,664.038 1552.27,657.038 1553,649.5C 1556.04,646.797 1558.7,643.797 1561,640.5C 1568.02,619.933 1579.86,602.766 1596.5,589C 1611.48,577.84 1626.82,567.174 1642.5,557C 1702.05,511.451 1729.88,450.951 1726,375.5C 1724.74,364.679 1722.74,354.012 1720,343.5C 1715.51,403.975 1690.68,454.141 1645.5,494C 1626.44,508.055 1607.11,521.722 1587.5,535C 1575.91,543.254 1566.41,553.421 1559,565.5C 1554.39,574.378 1550.06,583.378 1546,592.5C 1543.7,595.797 1541.04,598.797 1538,601.5C 1537.27,609.038 1534.93,616.038 1531,622.5C 1531.03,633.722 1527.7,643.722 1521,652.5C 1522.32,668.881 1516.82,682.381 1504.5,693C 1498.47,695.679 1493.14,699.346 1488.5,704C 1474.13,712.474 1458.8,714.808 1442.5,711C 1416.05,703.473 1389.71,695.806 1363.5,688C 1349.94,681.442 1340.11,671.276 1334,657.5C 1331.37,651.52 1328.7,645.52 1326,639.5C 1322.22,625.661 1324.56,612.995 1333,601.5C 1332.38,590.31 1335.05,579.976 1341,570.5C 1341.02,561.908 1342.86,553.741 1346.5,546C 1343.79,536.128 1343.95,526.295 1347,516.5C 1348.32,502.262 1347.16,488.262 1343.5,474.5C 1350.28,477.595 1357.28,479.762 1364.5,481C 1328.91,444.644 1308.24,401.144 1302.5,350.5C 1302.5,340.5 1302.5,330.5 1302.5,320.5C 1302.5,317.833 1302.5,315.167 1302.5,312.5C 1305.96,279.11 1316.63,248.11 1334.5,219.5C 1335.24,218.713 1336.08,218.047 1337,217.5C 1337.4,217.728 1337.57,218.062 1337.5,218.5C 1336.24,220.687 1335.24,223.02 1334.5,225.5C 1307.69,269.996 1298.86,317.996 1308,369.5C 1316.91,413.492 1337.41,450.992 1369.5,482C 1373.64,482.839 1377.64,483.673 1381.5,484.5C 1381.8,487.522 1382.3,490.522 1383,493.5C 1427.77,528.64 1478.61,543.14 1535.5,537C 1544.17,527 1553.5,517.667 1563.5,509C 1580.99,496.42 1598.66,484.087 1616.5,472C 1674.59,423.405 1695.42,361.905 1679,287.5C 1655.4,214.278 1605.57,171.778 1529.5,160C 1508.25,158.339 1487.25,159.839 1466.5,164.5C 1465.88,164.611 1465.38,164.944 1465,165.5C 1446.28,156.129 1426.45,152.296 1405.5,154C 1390.57,162.59 1377.07,173.09 1365,185.5C 1364.54,186.094 1364.37,186.761 1364.5,187.5C 1362.59,188.075 1360.92,189.075 1359.5,190.5C 1358.47,190.103 1358.31,189.437 1359,188.5C 1372,174.453 1386.5,162.453 1402.5,152.5C 1417.1,143.203 1432.77,136.036 1449.5,131C 1444.98,127.464 1441.81,122.964 1440,117.5C 1430.46,89.369 1421.62,61.0357 1413.5,32.5C 1414.71,17.7864 1422.38,8.28643 1436.5,4C 1444.7,2.80359 1452.7,1.30359 1460.5,-0.5 Z"/></g>
<g><path style="opacity:1" fill="#ffc513" d="M 1461.5,17.5 C 1469.04,15.8639 1474.88,18.1973 1479,24.5C 1480.03,52.4955 1480.36,80.4955 1480,108.5C 1477.78,118.36 1471.95,121.527 1462.5,118C 1461,116.5 1459.5,115 1458,113.5C 1448.99,86.6378 1440.49,59.6378 1432.5,32.5C 1432.45,28.4422 1434.11,25.2756 1437.5,23C 1445.54,20.8337 1453.54,19.0004 1461.5,17.5 Z"/></g>
<g><path style="opacity:1" fill="#ffc511" d="M 1547.5,20.5 C 1558.25,21.792 1568.92,23.6253 1579.5,26C 1583.55,28.0977 1585.89,31.431 1586.5,36C 1578,62.1534 1569.5,88.32 1561,114.5C 1556.52,123.833 1550.02,125.667 1541.5,120C 1540.54,118.581 1539.71,117.081 1539,115.5C 1538.33,86.5 1538.33,57.5 1539,28.5C 1541.07,24.9231 1543.91,22.2565 1547.5,20.5 Z"/></g>
<g><path style="opacity:0.984" fill="#fbfcfc" d="M 1292.5,156.5 C 1266,157.332 1239.34,157.832 1212.5,158C 1204.15,159.635 1195.82,159.469 1187.5,157.5C 1185.88,156.962 1184.22,156.629 1182.5,156.5C 1029.41,122.43 876.414,87.9295 723.5,53C 686.236,44.188 651.902,50.5214 620.5,72C 615.333,75.8333 610.833,80.3333 607,85.5C 592.489,109.195 577.989,132.861 563.5,156.5C 553.916,157.473 544.25,157.806 534.5,157.5C 552.905,126.357 572.072,95.6902 592,65.5C 613.267,43.7835 639.1,30.9501 669.5,27C 690.351,24.3511 711.018,25.3511 731.5,30C 918.479,72.3283 1105.48,114.495 1292.5,156.5 Z"/></g>
<g><path style="opacity:1" fill="#02579b" d="M 1182.5,156.5 C 1164.5,157.167 1146.5,157.833 1128.5,158.5C 1123.94,159.197 1119.77,160.863 1116,163.5C 1111.66,161.246 1107.16,159.413 1102.5,158C 1079.5,157.333 1056.5,157.333 1033.5,158C 1029.86,159.845 1026.19,159.845 1022.5,158C 1000.17,157.333 977.833,157.333 955.5,158C 951.857,159.845 948.191,159.845 944.5,158C 917.167,157.333 889.833,157.333 862.5,158C 852.352,160.317 845.018,166.15 840.5,175.5C 835.797,165.811 828.131,159.978 817.5,158C 789.833,157.333 762.167,157.333 734.5,158C 728.437,159.531 723.103,162.364 718.5,166.5C 705.388,159.553 691.388,155.386 676.5,154C 658.473,153.152 640.473,153.485 622.5,155C 613.833,156.416 605.5,158.916 597.5,162.5C 594.051,160.441 590.384,158.941 586.5,158C 578.656,157.829 570.989,157.329 563.5,156.5C 577.989,132.861 592.489,109.195 607,85.5C 610.833,80.3333 615.333,75.8333 620.5,72C 651.902,50.5214 686.236,44.188 723.5,53C 876.414,87.9295 1029.41,122.43 1182.5,156.5 Z"/></g>
<g><path style="opacity:1" fill="#ffc511" d="M 1655.5,58.5 C 1659.75,58.1778 1663.75,59.0111 1667.5,61C 1673.5,65.6667 1679.5,70.3333 1685.5,75C 1690.97,79.0881 1692.47,84.2547 1690,90.5C 1669.44,111.066 1648.27,130.9 1626.5,150C 1615.21,151.714 1610.05,146.881 1611,135.5C 1624.08,111.006 1637.41,86.673 1651,62.5C 1652.4,60.9297 1653.9,59.5964 1655.5,58.5 Z"/></g>
<g><path style="opacity:1" fill="#ffc510" d="M 1498.5,60.5 C 1505.51,60.3337 1512.51,60.5004 1519.5,61C 1522.39,63.9087 1523.23,67.4087 1522,71.5C 1519.67,85.5 1517.33,99.5 1515,113.5C 1510.67,120.167 1506.33,120.167 1502,113.5C 1500,97.6422 1497.83,81.8089 1495.5,66C 1495.86,63.8077 1496.86,61.9744 1498.5,60.5 Z"/></g>
<g><path style="opacity:1" fill="#ffc617" d="M 1592.5,75.5 C 1599.55,76.3492 1606.22,78.5158 1612.5,82C 1614.15,83.47 1615.15,85.3033 1615.5,87.5C 1607.52,102.126 1599.02,116.459 1590,130.5C 1581.15,134.98 1577.15,132.314 1578,122.5C 1581.67,108.5 1585.33,94.5 1589,80.5C 1590,78.6769 1591.16,77.0103 1592.5,75.5 Z"/></g>
<g><path style="opacity:1" fill="#ffc616" d="M 1675.5,122.5 C 1677.99,122.298 1680.32,122.798 1682.5,124C 1687.81,128.462 1692.14,133.629 1695.5,139.5C 1695.28,140.938 1694.78,142.271 1694,143.5C 1680.17,154.007 1665.84,163.674 1651,172.5C 1644.56,170.683 1642.89,166.683 1646,160.5C 1656.05,147.958 1665.88,135.291 1675.5,122.5 Z"/></g>
<g><path style="opacity:1" fill="#ffc512" d="M 1738.5,125.5 C 1742.13,125.16 1745.46,125.994 1748.5,128C 1754.72,135.888 1760.55,144.055 1766,152.5C 1768.17,157.149 1767.67,161.482 1764.5,165.5C 1738.1,179.187 1711.1,191.52 1683.5,202.5C 1672.28,199.585 1669.44,192.919 1675,182.5C 1696.06,163.264 1717.23,144.264 1738.5,125.5 Z"/></g>
<g><path style="opacity:0.998" fill="#f3f4f4" d="M 534.5,157.5 C 544.25,157.806 553.916,157.473 563.5,156.5C 570.989,157.329 578.656,157.829 586.5,158C 590.384,158.941 594.051,160.441 597.5,162.5C 605.5,158.916 613.833,156.416 622.5,155C 640.473,153.485 658.473,153.152 676.5,154C 691.388,155.386 705.388,159.553 718.5,166.5C 723.103,162.364 728.437,159.531 734.5,158C 762.167,157.333 789.833,157.333 817.5,158C 828.131,159.978 835.797,165.811 840.5,175.5C 845.018,166.15 852.352,160.317 862.5,158C 889.833,157.333 917.167,157.333 944.5,158C 948.191,159.845 951.857,159.845 955.5,158C 977.833,157.333 1000.17,157.333 1022.5,158C 1026.19,159.845 1029.86,159.845 1033.5,158C 1056.5,157.333 1079.5,157.333 1102.5,158C 1107.16,159.413 1111.66,161.246 1116,163.5C 1119.77,160.863 1123.94,159.197 1128.5,158.5C 1148.34,158.83 1168.01,158.497 1187.5,157.5C 1195.82,159.469 1204.15,159.635 1212.5,158C 1239.34,157.832 1266,157.332 1292.5,156.5C 1304.76,157.314 1317.09,157.814 1329.5,158C 1333.99,159.163 1338.16,160.997 1342,163.5C 1361.33,155.427 1381.5,151.761 1402.5,152.5C 1386.5,162.453 1372,174.453 1359,188.5C 1358.31,189.437 1358.47,190.103 1359.5,190.5C 1351.75,199.571 1344.42,208.904 1337.5,218.5C 1337.57,218.062 1337.4,217.728 1337,217.5C 1336.08,218.047 1335.24,218.713 1334.5,219.5C 1316.63,248.11 1305.96,279.11 1302.5,312.5C 1302.5,308.167 1302.5,303.833 1302.5,299.5C 1291.83,299.5 1281.17,299.5 1270.5,299.5C 1270.5,282.167 1270.5,264.833 1270.5,247.5C 1259.53,245.921 1248.53,244.588 1237.5,243.5C 1237.5,242.167 1237.5,240.833 1237.5,239.5C 1265.83,239.5 1294.17,239.5 1322.5,239.5C 1322.83,221.992 1322.5,204.659 1321.5,187.5C 1285.17,187.5 1248.83,187.5 1212.5,187.5C 1212.5,274.833 1212.5,362.167 1212.5,449.5C 1231.66,450.497 1250.99,450.83 1270.5,450.5C 1270.83,419.995 1270.5,389.662 1269.5,359.5C 1258.88,357.839 1248.21,356.506 1237.5,355.5C 1237.5,354.167 1237.5,352.833 1237.5,351.5C 1259.34,351.831 1281.01,351.497 1302.5,350.5C 1308.24,401.144 1328.91,444.644 1364.5,481C 1357.28,479.762 1350.28,477.595 1343.5,474.5C 1319.15,461.253 1306.32,440.586 1305,412.5C 1304.5,402.172 1304.33,391.839 1304.5,381.5C 1302.83,381.5 1301.17,381.5 1299.5,381.5C 1299.67,406.169 1299.5,430.836 1299,455.5C 1296.28,468.554 1288.45,476.721 1275.5,480C 1252.5,480.667 1229.5,480.667 1206.5,480C 1202.86,478.155 1199.19,478.155 1195.5,480C 1172.83,480.667 1150.17,480.667 1127.5,480C 1123.01,478.837 1118.84,477.003 1115,474.5C 1111.41,476.645 1107.57,478.311 1103.5,479.5C 1102.38,488.021 1098.88,495.354 1093,501.5C 1084.39,550.816 1075.89,600.149 1067.5,649.5C 1070.58,656.898 1071.24,664.565 1069.5,672.5C 1065.62,684.782 1057.29,691.949 1044.5,694C 931.526,694.471 818.526,694.471 705.5,694C 699.858,690.822 694.191,690.822 688.5,694C 600.167,694.667 511.833,694.667 423.5,694C 418.582,693.122 414.082,691.289 410,688.5C 405.501,691.112 400.668,692.946 395.5,694C 371.167,694.667 346.833,694.667 322.5,694C 306.142,689.462 297.809,678.628 297.5,661.5C 297.728,653.975 300.562,647.641 306,642.5C 315.046,594.265 323.713,545.932 332,497.5C 332.534,493.141 332.368,488.808 331.5,484.5C 316.452,483.53 302.285,479.53 289,472.5C 285.323,476.423 280.823,478.923 275.5,480C 251.5,480.667 227.5,480.667 203.5,480C 198.101,478.801 193.434,476.301 189.5,472.5C 181.291,476.553 172.624,479.053 163.5,480C 125.833,480.667 88.1667,480.667 50.5,480C 36.6639,476.497 28.8306,467.664 27,453.5C 26.3333,363.833 26.3333,274.167 27,184.5C 28.8496,170.319 36.683,161.486 50.5,158C 87.8333,157.333 125.167,157.333 162.5,158C 171.989,158.789 180.989,161.289 189.5,165.5C 193.673,161.413 198.673,158.913 204.5,158C 227.833,157.333 251.167,157.333 274.5,158C 279.967,159.316 284.8,161.816 289,165.5C 303.866,157.825 319.7,153.658 336.5,153C 359.987,150.795 382.987,153.128 405.5,160C 409.619,161.559 413.619,163.393 417.5,165.5C 421.673,161.413 426.673,158.913 432.5,158C 455.833,157.333 479.167,157.333 502.5,158C 505.55,159.714 508.55,159.714 511.5,158C 519.159,157.5 526.826,157.334 534.5,157.5 Z"/></g>
<g><path style="opacity:1" fill="#f3f4f5" d="M 1466.5,164.5 C 1474.77,170.939 1482.27,178.272 1489,186.5C 1494.45,195.858 1498.12,205.858 1500,216.5C 1500.67,283.833 1500.67,351.167 1500,418.5C 1495.1,452.458 1475.94,473.292 1442.5,481C 1436.88,482.258 1431.21,483.258 1425.5,484C 1410.84,484.5 1396.17,484.667 1381.5,484.5C 1377.64,483.673 1373.64,482.839 1369.5,482C 1337.41,450.992 1316.91,413.492 1308,369.5C 1298.86,317.996 1307.69,269.996 1334.5,225.5C 1334.33,288.168 1334.5,350.834 1335,413.5C 1336.76,434.531 1347.93,447.364 1368.5,452C 1392.24,456.92 1415.91,456.587 1439.5,451C 1457.01,446.494 1467.17,435.327 1470,417.5C 1470.67,351.167 1470.67,284.833 1470,218.5C 1467.31,204.14 1459.14,194.307 1445.5,189C 1425.27,182.93 1404.6,180.93 1383.5,183C 1376.96,183.806 1370.63,185.306 1364.5,187.5C 1364.37,186.761 1364.54,186.094 1365,185.5C 1377.07,173.09 1390.57,162.59 1405.5,154C 1426.45,152.296 1446.28,156.129 1465,165.5C 1465.38,164.944 1465.88,164.611 1466.5,164.5 Z"/></g>
<g><path style="opacity:1" fill="#95b7d2" d="M 1182.5,156.5 C 1184.22,156.629 1185.88,156.962 1187.5,157.5C 1168.01,158.497 1148.34,158.83 1128.5,158.5C 1146.5,157.833 1164.5,157.167 1182.5,156.5 Z"/></g>
<g><path style="opacity:1" fill="#ffc50e" d="M 1381.5,484.5 C 1396.17,484.667 1410.84,484.5 1425.5,484C 1431.21,483.258 1436.88,482.258 1442.5,481C 1475.94,473.292 1495.1,452.458 1500,418.5C 1500.67,351.167 1500.67,283.833 1500,216.5C 1498.12,205.858 1494.45,195.858 1489,186.5C 1482.27,178.272 1474.77,170.939 1466.5,164.5C 1487.25,159.839 1508.25,158.339 1529.5,160C 1605.57,171.778 1655.4,214.278 1679,287.5C 1695.42,361.905 1674.59,423.405 1616.5,472C 1598.66,484.087 1580.99,496.42 1563.5,509C 1553.5,517.667 1544.17,527 1535.5,537C 1478.61,543.14 1427.77,528.64 1383,493.5C 1382.3,490.522 1381.8,487.522 1381.5,484.5 Z"/></g>
<g><path style="opacity:1" fill="#30318b" d="M 335.5,182.5 C 352.957,181.909 370.29,183.076 387.5,186C 406.711,190.874 417.878,203.041 421,222.5C 421.5,239.83 421.667,257.163 421.5,274.5C 402.167,274.5 382.833,274.5 363.5,274.5C 363.667,263.162 363.5,251.828 363,240.5C 360.661,236.653 357.161,234.986 352.5,235.5C 349.139,235.112 346.306,236.112 344,238.5C 343.333,250.5 343.333,262.5 344,274.5C 367.576,290.706 391.409,306.539 415.5,322C 418.106,323.938 419.939,326.438 421,329.5C 421.667,357.5 421.667,385.5 421,413.5C 419.632,432.183 410.132,444.35 392.5,450C 379.5,450.333 366.5,450.667 353.5,451C 336.248,456.539 319.581,454.872 303.5,446C 294.668,440.503 289.168,432.67 287,422.5C 285.556,400.878 285.056,379.212 285.5,357.5C 304.833,357.5 324.167,357.5 343.5,357.5C 343.333,371.171 343.5,384.837 344,398.5C 348.042,403.75 353.209,404.917 359.5,402C 361.049,400.786 362.215,399.286 363,397.5C 363.667,384.5 363.667,371.5 363,358.5C 362.044,357.421 361.211,356.255 360.5,355C 335.547,338.612 310.714,322.112 286,305.5C 285.333,276.5 285.333,247.5 286,218.5C 290.104,201.062 300.938,190.229 318.5,186C 324.265,184.614 329.931,183.448 335.5,182.5 Z"/></g>
<g><path style="opacity:1" fill="#2f318b" d="M 635.5,182.5 C 650.196,182.223 664.863,182.723 679.5,184C 693.771,185.635 705.604,191.802 715,202.5C 718.436,208.044 720.77,214.044 722,220.5C 722.667,284.833 722.667,349.167 722,413.5C 720.752,431.735 711.586,443.901 694.5,450C 667.5,450.667 640.5,450.667 613.5,450C 599.283,445.116 590.783,435.283 588,420.5C 586.358,353.527 586.024,286.527 587,219.5C 589.854,203.953 598.687,193.453 613.5,188C 620.966,186.133 628.299,184.3 635.5,182.5 Z"/></g>
<g><path style="opacity:1" fill="#30328b" d="M 1334.5,225.5 C 1335.24,223.02 1336.24,220.687 1337.5,218.5C 1344.42,208.904 1351.75,199.571 1359.5,190.5C 1360.92,189.075 1362.59,188.075 1364.5,187.5C 1370.63,185.306 1376.96,183.806 1383.5,183C 1404.6,180.93 1425.27,182.93 1445.5,189C 1459.14,194.307 1467.31,204.14 1470,218.5C 1470.67,284.833 1470.67,351.167 1470,417.5C 1467.17,435.327 1457.01,446.494 1439.5,451C 1415.91,456.587 1392.24,456.92 1368.5,452C 1347.93,447.364 1336.76,434.531 1335,413.5C 1334.5,350.834 1334.33,288.168 1334.5,225.5 Z"/></g>
<g><path style="opacity:1" fill="#2f318b" d="M 57.5,187.5 C 91.835,187.333 126.168,187.5 160.5,188C 179.924,190.287 190.758,201.12 193,220.5C 193.667,283.833 193.667,347.167 193,410.5C 192.952,434.881 180.785,448.047 156.5,450C 123.502,450.5 90.5017,450.667 57.5,450.5C 57.5,362.833 57.5,275.167 57.5,187.5 Z"/></g>
<g><path style="opacity:1" fill="#30318b" d="M 210.5,187.5 C 229.833,187.5 249.167,187.5 268.5,187.5C 268.5,275.167 268.5,362.833 268.5,450.5C 249.167,450.5 229.833,450.5 210.5,450.5C 210.5,362.833 210.5,275.167 210.5,187.5 Z"/></g>
<g><path style="opacity:1" fill="#7374b0" d="M 439.5,187.5 C 439.5,274.833 439.5,362.167 439.5,449.5C 458.5,449.5 477.5,449.5 496.5,449.5C 477.341,450.497 458.007,450.83 438.5,450.5C 438.167,362.665 438.501,274.998 439.5,187.5 Z"/></g>
<g><path style="opacity:1" fill="#2f318b" d="M 439.5,187.5 C 458.5,187.5 477.5,187.5 496.5,187.5C 496.333,223.502 496.5,259.502 497,295.5C 497.44,293.134 497.94,290.801 498.5,288.5C 504.961,254.86 511.295,221.193 517.5,187.5C 538.844,187.167 560.177,187.5 581.5,188.5C 566.303,232.092 551.303,275.759 536.5,319.5C 551.77,361.978 566.437,404.644 580.5,447.5C 559.86,449.489 538.86,450.155 517.5,449.5C 507.504,410.183 497.504,370.849 487.5,331.5C 486.167,331.5 484.833,331.5 483.5,331.5C 487.35,349.888 491.517,368.222 496,386.5C 496.5,407.497 496.667,428.497 496.5,449.5C 477.5,449.5 458.5,449.5 439.5,449.5C 439.5,362.167 439.5,274.833 439.5,187.5 Z"/></g>
<g><path style="opacity:1" fill="#b3b4d3" d="M 496.5,187.5 C 497.167,221.167 497.833,254.833 498.5,288.5C 497.94,290.801 497.44,293.134 497,295.5C 496.5,259.502 496.333,223.502 496.5,187.5 Z"/></g>
<g><path style="opacity:1" fill="#a9aacd" d="M 740.5,187.5 C 740.5,274.833 740.5,362.167 740.5,449.5C 749.349,449.174 758.016,449.507 766.5,450.5C 757.5,450.5 748.5,450.5 739.5,450.5C 739.167,362.665 739.501,274.998 740.5,187.5 Z"/></g>
<g><path style="opacity:1" fill="#2f318b" d="M 740.5,187.5 C 764.833,187.5 789.167,187.5 813.5,187.5C 827.961,261.141 842.295,334.807 856.5,408.5C 857.833,408.5 859.167,408.5 860.5,408.5C 856.162,376.466 851.495,344.466 846.5,312.5C 853.394,270.8 860.394,229.134 867.5,187.5C 891.833,187.5 916.167,187.5 940.5,187.5C 940.5,274.833 940.5,362.167 940.5,449.5C 921.5,449.5 902.5,449.5 883.5,449.5C 883.5,437.5 883.5,425.5 883.5,413.5C 888.907,364.836 894.24,316.169 899.5,267.5C 898.167,267.5 896.833,267.5 895.5,267.5C 887.558,328.202 879.558,388.869 871.5,449.5C 850.934,450.137 830.6,449.47 810.5,447.5C 801.996,387.462 793.329,327.462 784.5,267.5C 783.5,267.5 782.5,267.5 781.5,267.5C 786.524,315.881 792.024,364.215 798,412.5C 798.5,425.162 798.667,437.829 798.5,450.5C 787.833,450.5 777.167,450.5 766.5,450.5C 758.016,449.507 749.349,449.174 740.5,449.5C 740.5,362.167 740.5,274.833 740.5,187.5 Z"/></g>
<g><path style="opacity:1" fill="#7c7db4" d="M 940.5,187.5 C 941.499,274.998 941.833,362.665 941.5,450.5C 921.833,450.5 902.167,450.5 882.5,450.5C 882.171,437.989 882.505,425.655 883.5,413.5C 883.5,425.5 883.5,437.5 883.5,449.5C 902.5,449.5 921.5,449.5 940.5,449.5C 940.5,362.167 940.5,274.833 940.5,187.5 Z"/></g>
<g><path style="opacity:1" fill="#2f318b" d="M 1018.5,187.5 C 1018.5,274.833 1018.5,362.167 1018.5,449.5C 1014.96,449.187 1011.62,449.521 1008.5,450.5C 992.833,450.5 977.167,450.5 961.5,450.5C 961.5,362.833 961.5,275.167 961.5,187.5C 980.5,187.5 999.5,187.5 1018.5,187.5 Z"/></g>
<g><path style="opacity:1" fill="#454697" d="M 1018.5,187.5 C 1019.5,274.998 1019.83,362.665 1019.5,450.5C 1015.83,450.5 1012.17,450.5 1008.5,450.5C 1011.62,449.521 1014.96,449.187 1018.5,449.5C 1018.5,362.167 1018.5,274.833 1018.5,187.5 Z"/></g>
<g><path style="opacity:1" fill="#2f318b" d="M 1191.5,187.5 C 1191.5,274.833 1191.5,362.167 1191.5,449.5C 1172.17,449.5 1152.83,449.5 1133.5,449.5C 1112.91,388.899 1092.41,328.232 1072,267.5C 1070.51,266.253 1069.01,266.253 1067.5,267.5C 1077.78,297.668 1087.45,328.001 1096.5,358.5C 1096.5,388.833 1096.5,419.167 1096.5,449.5C 1077.5,449.5 1058.5,449.5 1039.5,449.5C 1039.5,362.167 1039.5,274.833 1039.5,187.5C 1058.84,187.167 1078.18,187.5 1097.5,188.5C 1118.43,248.796 1139.27,309.129 1160,369.5C 1161.49,370.747 1162.99,370.747 1164.5,369.5C 1154.57,339.537 1144.73,309.537 1135,279.5C 1134.5,248.835 1134.33,218.168 1134.5,187.5C 1153.5,187.5 1172.5,187.5 1191.5,187.5 Z"/></g>
<g><path style="opacity:1" fill="#5759a1" d="M 1191.5,187.5 C 1192.5,274.998 1192.83,362.665 1192.5,450.5C 1172.66,450.83 1152.99,450.497 1133.5,449.5C 1152.83,449.5 1172.17,449.5 1191.5,449.5C 1191.5,362.167 1191.5,274.833 1191.5,187.5 Z"/></g>
<g><path style="opacity:1" fill="#2f318b" d="M 1321.5,187.5 C 1321.5,204.5 1321.5,221.5 1321.5,238.5C 1293.33,238.169 1265.33,238.502 1237.5,239.5C 1237.5,240.833 1237.5,242.167 1237.5,243.5C 1248.53,244.588 1259.53,245.921 1270.5,247.5C 1270.5,264.833 1270.5,282.167 1270.5,299.5C 1281.17,299.5 1291.83,299.5 1302.5,299.5C 1302.5,303.833 1302.5,308.167 1302.5,312.5C 1302.5,315.167 1302.5,317.833 1302.5,320.5C 1301.51,330.319 1301.17,340.319 1301.5,350.5C 1279.99,350.169 1258.66,350.503 1237.5,351.5C 1237.5,352.833 1237.5,354.167 1237.5,355.5C 1248.21,356.506 1258.88,357.839 1269.5,359.5C 1269.5,389.5 1269.5,419.5 1269.5,449.5C 1250.5,449.5 1231.5,449.5 1212.5,449.5C 1212.5,362.167 1212.5,274.833 1212.5,187.5C 1248.83,187.5 1285.17,187.5 1321.5,187.5 Z"/></g>
<g><path style="opacity:1" fill="#434295" d="M 1352.5,192.5 C 1353.24,192.369 1353.91,192.536 1354.5,193C 1347.9,200.269 1342.06,208.102 1337,216.5C 1337.14,212.193 1338.47,208.193 1341,204.5C 1344.36,199.971 1348.2,195.971 1352.5,192.5 Z"/></g>
<g><path style="opacity:1" fill="#f3f4f5" d="M 649.5,235.5 C 655.039,234.638 659.872,235.972 664,239.5C 664.667,292.167 664.667,344.833 664,397.5C 660.252,403.542 655.085,405.042 648.5,402C 646.951,400.786 645.785,399.286 645,397.5C 644.333,344.833 644.333,292.167 645,239.5C 645.907,237.391 647.407,236.058 649.5,235.5 Z"/></g>
<g><path style="opacity:1" fill="#f0f1f3" d="M 1397.5,235.5 C 1401.18,235.335 1404.85,235.501 1408.5,236C 1409.93,236.465 1411.1,237.299 1412,238.5C 1412.67,291.833 1412.67,345.167 1412,398.5C 1407.84,403.592 1402.67,404.758 1396.5,402C 1394.95,400.786 1393.78,399.286 1393,397.5C 1392.33,345.167 1392.33,292.833 1393,240.5C 1394.02,238.313 1395.52,236.646 1397.5,235.5 Z"/></g>
<g><path style="opacity:1" fill="#4a4b99" d="M 1321.5,187.5 C 1322.5,204.659 1322.83,221.992 1322.5,239.5C 1294.17,239.5 1265.83,239.5 1237.5,239.5C 1265.33,238.502 1293.33,238.169 1321.5,238.5C 1321.5,221.5 1321.5,204.5 1321.5,187.5 Z"/></g>
<g><path style="opacity:1" fill="#f3f4f5" d="M 82.5,240.5 C 97.5037,240.333 112.504,240.5 127.5,241C 131.219,242.263 133.719,244.763 135,248.5C 135.667,294.833 135.667,341.167 135,387.5C 134.385,392.783 131.551,396.283 126.5,398C 122.848,398.499 119.182,398.665 115.5,398.5C 115.5,348.5 115.5,298.5 115.5,248.5C 105.164,247.083 94.8309,245.583 84.5,244C 83.0267,243.29 82.3601,242.124 82.5,240.5 Z"/></g>
<g><path style="opacity:1" fill="#03579b" d="M 1221.5,748.5 C 1243.11,724.22 1265.11,700.22 1287.5,676.5C 1214.84,674.616 1142.18,673.283 1069.5,672.5C 1071.24,664.565 1070.58,656.898 1067.5,649.5C 1075.89,600.149 1084.39,550.816 1093,501.5C 1098.88,495.354 1102.38,488.021 1103.5,479.5C 1107.57,478.311 1111.41,476.645 1115,474.5C 1118.84,477.003 1123.01,478.837 1127.5,480C 1150.17,480.667 1172.83,480.667 1195.5,480C 1199.19,478.155 1202.86,478.155 1206.5,480C 1229.5,480.667 1252.5,480.667 1275.5,480C 1288.45,476.721 1296.28,468.554 1299,455.5C 1299.5,430.836 1299.67,406.169 1299.5,381.5C 1301.17,381.5 1302.83,381.5 1304.5,381.5C 1304.33,391.839 1304.5,402.172 1305,412.5C 1306.32,440.586 1319.15,461.253 1343.5,474.5C 1347.16,488.262 1348.32,502.262 1347,516.5C 1343.95,526.295 1343.79,536.128 1346.5,546C 1342.86,553.741 1341.02,561.908 1341,570.5C 1335.05,579.976 1332.38,590.31 1333,601.5C 1324.56,612.995 1322.22,625.661 1326,639.5C 1328.7,645.52 1331.37,651.52 1334,657.5C 1340.11,671.276 1349.94,681.442 1363.5,688C 1389.71,695.806 1416.05,703.473 1442.5,711C 1458.8,714.808 1474.13,712.474 1488.5,704C 1493.14,699.346 1498.47,695.679 1504.5,693C 1516.82,682.381 1522.32,668.881 1521,652.5C 1527.7,643.722 1531.03,633.722 1531,622.5C 1534.93,616.038 1537.27,609.038 1538,601.5C 1541.04,598.797 1543.7,595.797 1546,592.5C 1550.06,583.378 1554.39,574.378 1559,565.5C 1566.41,553.421 1575.91,543.254 1587.5,535C 1607.11,521.722 1626.44,508.055 1645.5,494C 1690.68,454.141 1715.51,403.975 1720,343.5C 1722.74,354.012 1724.74,364.679 1726,375.5C 1729.88,450.951 1702.05,511.451 1642.5,557C 1626.82,567.174 1611.48,577.84 1596.5,589C 1579.86,602.766 1568.02,619.933 1561,640.5C 1558.7,643.797 1556.04,646.797 1553,649.5C 1552.27,657.038 1549.93,664.038 1546,670.5C 1545.99,680.852 1542.99,690.185 1537,698.5C 1537.98,712.226 1533.81,724.06 1524.5,734C 1517.48,738.174 1510.82,742.841 1504.5,748C 1492.62,754.426 1479.95,756.759 1466.5,755C 1442.92,747.952 1419.25,741.285 1395.5,735C 1390.69,733.422 1386.02,731.589 1381.5,729.5C 1373.41,732.419 1365.07,734.252 1356.5,735C 1311.52,739.736 1266.52,744.236 1221.5,748.5 Z"/></g>
<g><path style="opacity:1" fill="#53539e" d="M 1302.5,320.5 C 1302.5,330.5 1302.5,340.5 1302.5,350.5C 1281.01,351.497 1259.34,351.831 1237.5,351.5C 1258.66,350.503 1279.99,350.169 1301.5,350.5C 1301.17,340.319 1301.51,330.319 1302.5,320.5 Z"/></g>
<g><path style="opacity:1" fill="#6162a6" d="M 1096.5,358.5 C 1097.5,388.995 1097.83,419.662 1097.5,450.5C 1077.99,450.83 1058.66,450.497 1039.5,449.5C 1058.5,449.5 1077.5,449.5 1096.5,449.5C 1096.5,419.167 1096.5,388.833 1096.5,358.5 Z"/></g>
<g><path style="opacity:1" fill="#4d4e9b" d="M 1269.5,359.5 C 1270.5,389.662 1270.83,419.995 1270.5,450.5C 1250.99,450.83 1231.66,450.497 1212.5,449.5C 1231.5,449.5 1250.5,449.5 1269.5,449.5C 1269.5,419.5 1269.5,389.5 1269.5,359.5 Z"/></g>
<g><path style="opacity:1" fill="#6466a8" d="M 580.5,447.5 C 581.404,448.209 581.737,449.209 581.5,450.5C 559.993,450.831 538.66,450.497 517.5,449.5C 538.86,450.155 559.86,449.489 580.5,447.5 Z"/></g>
<g><path style="opacity:1" fill="#696bab" d="M 810.5,447.5 C 830.6,449.47 850.934,450.137 871.5,449.5C 851.34,450.497 831.007,450.83 810.5,450.5C 810.5,449.5 810.5,448.5 810.5,447.5 Z"/></g>
<g><path style="opacity:1" fill="#9192c0" d="M 422.5,481.5 C 402.674,480.503 382.674,480.17 362.5,480.5C 382.427,479.34 403.093,479.173 424.5,480C 423.956,480.717 423.289,481.217 422.5,481.5 Z"/></g>
<g><path style="opacity:1" fill="#9293c1" d="M 508.5,481.5 C 486.5,480.167 464.5,480.167 442.5,481.5C 441.711,481.217 441.044,480.717 440.5,480C 463.507,479.167 486.507,479.334 509.5,480.5C 509.376,481.107 509.043,481.44 508.5,481.5 Z"/></g>
<g><path style="opacity:1" fill="#c3c4db" d="M 641.5,481.5 C 602.5,480.167 563.5,480.167 524.5,481.5C 523.957,481.44 523.624,481.107 523.5,480.5C 563.496,479.333 603.496,479.167 643.5,480C 642.956,480.717 642.289,481.217 641.5,481.5 Z"/></g>
<g><path style="opacity:1" fill="#9293c1" d="M 760.5,481.5 C 724.5,480.167 688.5,480.167 652.5,481.5C 651.711,481.217 651.044,480.717 650.5,480C 687.833,479.333 725.167,479.333 762.5,480C 761.956,480.717 761.289,481.217 760.5,481.5 Z"/></g>
<g><path style="opacity:1" fill="#c4c5dc" d="M 922.5,481.5 C 883.337,480.501 844.004,480.168 804.5,480.5C 823.428,479.827 843.095,479.494 863.5,479.5C 883.5,479.833 903.5,480.167 923.5,480.5C 923.376,481.107 923.043,481.44 922.5,481.5 Z"/></g>
<g><path style="opacity:1" fill="#9192c0" d="M 995.5,481.5 C 974.34,480.503 953.007,480.169 931.5,480.5C 952.76,479.34 974.76,479.173 997.5,480C 996.956,480.717 996.289,481.217 995.5,481.5 Z"/></g>
<g><path style="opacity:1" fill="#9394c1" d="M 1070.5,481.5 C 1051.5,480.167 1032.5,480.167 1013.5,481.5C 1012.96,481.44 1012.62,481.107 1012.5,480.5C 1032.49,479.334 1052.49,479.167 1072.5,480C 1071.96,480.717 1071.29,481.217 1070.5,481.5 Z"/></g>
<g><path style="opacity:1" fill="#30318b" d="M 362.5,480.5 C 382.674,480.17 402.674,480.503 422.5,481.5C 420.771,482.117 419.271,483.117 418,484.5C 412.887,511.845 408.221,539.179 404,566.5C 417.3,541.186 430.633,515.853 444,490.5C 451.035,494.603 458.202,498.103 465.5,501C 457.642,494.635 449.975,488.135 442.5,481.5C 464.5,480.167 486.5,480.167 508.5,481.5C 504.211,483.626 501.044,486.959 499,491.5C 484.092,517.486 469.592,543.652 455.5,570C 465.742,598.652 476.409,627.152 487.5,655.5C 487.167,655.833 486.833,656.167 486.5,656.5C 484.271,655.037 481.937,654.203 479.5,654C 483.5,657.333 487.5,660.667 491.5,664C 470.5,664.667 449.5,664.667 428.5,664C 430.333,662.833 432.167,661.667 434,660.5C 434.667,659.167 434.667,657.833 434,656.5C 423.853,628.39 413.52,600.39 403,572.5C 397.572,599.729 392.572,627.063 388,654.5C 387.612,655.428 386.945,656.095 386,656.5C 384.028,654.922 381.862,654.089 379.5,654C 383.5,657.333 387.5,660.667 391.5,664C 370.5,664.667 349.5,664.667 328.5,664C 331.211,662.739 333.378,660.906 335,658.5C 344.51,602.443 354.343,546.443 364.5,490.5C 372.7,495.267 381.033,499.433 389.5,503C 380.018,496.012 371.018,488.512 362.5,480.5 Z"/></g>
<g><path style="opacity:1" fill="#2f318b" d="M 524.5,481.5 C 563.5,480.167 602.5,480.167 641.5,481.5C 639.695,482.237 638.029,483.237 636.5,484.5C 638.898,490.027 640.898,495.693 642.5,501.5C 638.255,510.324 633.755,518.99 629,527.5C 627.167,526.333 625.333,525.167 623.5,524C 606.837,523.5 590.17,523.333 573.5,523.5C 572.167,532.167 570.833,540.833 569.5,549.5C 586.167,550.167 602.833,550.833 619.5,551.5C 617.536,551.977 616.202,553.144 615.5,555C 618.267,561.28 619.767,567.78 620,574.5C 616.175,582.819 611.842,590.819 607,598.5C 605.296,596.627 603.463,594.96 601.5,593.5C 581.004,592.337 560.337,592.171 539.5,593C 540.044,593.717 540.711,594.217 541.5,594.5C 547.745,596.248 554.079,597.582 560.5,598.5C 559.833,604.5 559.167,610.5 558.5,616.5C 557.549,617.919 557.216,619.585 557.5,621.5C 574.342,621.83 591.008,621.497 607.5,620.5C 609.628,618.597 611.961,616.931 614.5,615.5C 616.593,622.051 618.259,628.718 619.5,635.5C 616.053,643.727 612.053,651.727 607.5,659.5C 609.283,661.232 611.283,662.732 613.5,664C 573.5,664.667 533.5,664.667 493.5,664C 500.011,659.577 506.345,654.911 512.5,650C 508.211,650.876 504.044,652.376 500,654.5C 499.833,653.5 499.667,652.5 499.5,651.5C 508.602,598.222 517.269,544.889 525.5,491.5C 534.394,495.12 543.061,498.954 551.5,503C 542.337,496 533.337,488.833 524.5,481.5 Z"/></g>
<g><path style="opacity:1" fill="#2f318b" d="M 760.5,481.5 C 758.86,482.32 757.193,483.153 755.5,484C 769.714,494.626 775.214,508.793 772,526.5C 770.241,544.972 765.574,562.639 758,579.5C 753.213,586.288 747.713,592.454 741.5,598C 734.754,599.353 728.087,601.02 721.5,603C 727.859,603.169 734.193,603.669 740.5,604.5C 748.392,623.284 756.558,641.95 765,660.5C 767.087,661.794 769.254,662.961 771.5,664C 751.169,664.5 730.836,664.667 710.5,664.5C 710.66,662.801 710.494,661.134 710,659.5C 702.667,642.833 695.333,626.167 688,609.5C 684.747,624.338 681.914,639.338 679.5,654.5C 679.167,655.167 678.833,655.833 678.5,656.5C 676.271,655.037 673.937,654.203 671.5,654C 675.5,657.333 679.5,660.667 683.5,664C 662.167,664.667 640.833,664.667 619.5,664C 621.37,662.634 623.37,661.467 625.5,660.5C 634.726,604.867 643.892,549.2 653,493.5C 653.725,491.842 654.892,491.342 656.5,492C 663.219,496.195 670.219,499.529 677.5,502C 669.096,495.148 660.763,488.315 652.5,481.5C 688.5,480.167 724.5,480.167 760.5,481.5 Z"/></g>
<g><path style="opacity:1" fill="#30318b" d="M 804.5,480.5 C 844.004,480.168 883.337,480.501 922.5,481.5C 920.097,481.695 918.43,482.862 917.5,485C 920.058,490.986 921.558,497.153 922,503.5C 918.088,511.657 913.922,519.657 909.5,527.5C 907.664,526.081 905.664,524.914 903.5,524C 887.167,523.333 870.833,523.333 854.5,524C 852.473,531.679 851.14,539.513 850.5,547.5C 849.596,548.209 849.263,549.209 849.5,550.5C 866.675,550.17 883.675,550.503 900.5,551.5C 898.436,552.058 896.77,553.225 895.5,555C 898.171,561.006 900.005,567.172 901,573.5C 897.088,581.657 892.922,589.657 888.5,597.5C 885.901,597.648 883.901,596.315 882.5,593.5C 861.671,592.337 840.671,592.171 819.5,593C 820.244,594.039 821.244,594.539 822.5,594.5C 828.962,595.866 835.295,597.699 841.5,600C 839.693,606.682 838.693,613.515 838.5,620.5C 855.17,620.667 871.837,620.5 888.5,620C 890.667,618.5 892.833,617 895,615.5C 896.779,622.331 898.612,629.164 900.5,636C 896.428,644.144 892.095,652.144 887.5,660C 889.5,661.333 891.5,662.667 893.5,664C 853.833,664.667 814.167,664.667 774.5,664C 780.552,658.947 786.885,654.281 793.5,650C 788.952,650.573 784.619,652.073 780.5,654.5C 780.167,654 779.833,653.5 779.5,653C 788.771,599.207 797.771,545.374 806.5,491.5C 814.432,495.303 822.432,498.803 830.5,502C 821.578,495.053 812.912,487.887 804.5,480.5 Z"/></g>
<g><path style="opacity:1" fill="#2f318b" d="M 931.5,480.5 C 953.007,480.169 974.34,480.503 995.5,481.5C 993.454,482.359 992.121,483.859 991.5,486C 996.412,504.481 1001.25,522.981 1006,541.5C 1008.7,524.382 1011.86,507.382 1015.5,490.5C 1022.55,494.862 1029.89,498.362 1037.5,501C 1029.63,494.287 1021.63,487.787 1013.5,481.5C 1032.5,480.167 1051.5,480.167 1070.5,481.5C 1067.15,482.095 1065.32,484.095 1065,487.5C 1055.33,544.168 1045.67,600.835 1036,657.5C 1034.01,655.912 1031.85,655.079 1029.5,655C 1033.17,658 1036.83,661 1040.5,664C 1020.17,664.667 999.833,664.667 979.5,664C 982.178,663.014 983.844,661.18 984.5,658.5C 979.821,638.785 974.988,619.119 970,599.5C 966.393,618.811 962.893,638.144 959.5,657.5C 956.612,655.71 953.612,654.543 950.5,654C 954.5,657.333 958.5,660.667 962.5,664C 941.833,664.667 921.167,664.667 900.5,664C 902.249,662.708 904.082,661.542 906,660.5C 914.77,603.876 924.603,547.542 935.5,491.5C 942.552,495.862 949.885,499.362 957.5,502C 948.578,495.053 939.912,487.887 931.5,480.5 Z"/></g>
<g><path style="opacity:1" fill="#fec511" d="M 1499.5,581.5 C 1462.71,571.571 1426.05,561.237 1389.5,550.5C 1385.39,547.879 1382.55,544.212 1381,539.5C 1381.8,525.216 1382.47,510.883 1383,496.5C 1427.4,530.403 1477.56,544.903 1533.5,540C 1526.82,550.194 1521.32,561.028 1517,572.5C 1512.89,578.803 1507.06,581.803 1499.5,581.5 Z"/></g>
<g><path style="opacity:1" fill="#9091bf" d="M 701.5,523.5 C 713.326,522.34 725.326,522.174 737.5,523C 736.956,523.717 736.289,524.217 735.5,524.5C 724.346,523.505 713.012,523.172 701.5,523.5 Z"/></g>
<g><path style="opacity:1" fill="#f1f2f4" d="M 701.5,523.5 C 713.012,523.172 724.346,523.505 735.5,524.5C 732.055,525.149 728.889,526.482 726,528.5C 723.669,541.818 721.502,555.152 719.5,568.5C 710.833,568.5 702.167,568.5 693.5,568.5C 696.01,553.464 698.676,538.464 701.5,523.5 Z"/></g>
<g><path style="opacity:1" fill="#9192c0" d="M 569.5,549.5 C 586.837,549.333 604.17,549.5 621.5,550C 620.956,550.717 620.289,551.217 619.5,551.5C 602.833,550.833 586.167,550.167 569.5,549.5 Z"/></g>
<g><path style="opacity:1" fill="#9293c1" d="M 850.5,547.5 C 867.471,549.322 884.804,550.156 902.5,550C 901.956,550.717 901.289,551.217 900.5,551.5C 883.675,550.503 866.675,550.17 849.5,550.5C 849.263,549.209 849.596,548.209 850.5,547.5 Z"/></g>
<g><path style="opacity:1" fill="#8c8280" d="M 1389.5,550.5 C 1426.05,561.237 1462.71,571.571 1499.5,581.5C 1499.04,584.877 1498.37,588.211 1497.5,591.5C 1460.4,581.353 1423.4,571.02 1386.5,560.5C 1387.13,556.952 1388.13,553.619 1389.5,550.5 Z"/></g>
<g><path style="opacity:1" fill="#514843" d="M 1386.5,560.5 C 1423.4,571.02 1460.4,581.353 1497.5,591.5C 1502.11,593.772 1503.61,597.438 1502,602.5C 1500.87,604.141 1499.37,605.141 1497.5,605.5C 1493.08,605.695 1488.75,605.195 1484.5,604C 1450.56,594.182 1416.56,584.682 1382.5,575.5C 1375.64,571.394 1374.97,566.561 1380.5,561C 1382.47,560.505 1384.47,560.338 1386.5,560.5 Z"/></g>
<g><path style="opacity:1" fill="#8b8180" d="M 1382.5,575.5 C 1416.56,584.682 1450.56,594.182 1484.5,604C 1488.75,605.195 1493.08,605.695 1497.5,605.5C 1496.08,606.451 1494.41,606.784 1492.5,606.5C 1491.66,610.874 1490.66,615.207 1489.5,619.5C 1452.6,608.556 1415.6,597.889 1378.5,587.5C 1379.53,583.376 1380.86,579.376 1382.5,575.5 Z"/></g>
<g><path style="opacity:1" fill="#514843" d="M 1378.5,587.5 C 1415.6,597.889 1452.6,608.556 1489.5,619.5C 1491.37,619.859 1492.87,620.859 1494,622.5C 1496.21,630.117 1493.38,633.784 1485.5,633.5C 1448.42,623.315 1411.42,612.982 1374.5,602.5C 1368.28,598.109 1367.95,593.276 1373.5,588C 1375.13,587.506 1376.8,587.34 1378.5,587.5 Z"/></g>
<g><path style="opacity:1" fill="#6162a6" d="M 601.5,593.5 C 581.326,593.17 561.326,593.503 541.5,594.5C 540.711,594.217 540.044,593.717 539.5,593C 560.337,592.171 581.004,592.337 601.5,593.5 Z"/></g>
<g><path style="opacity:1" fill="#6162a6" d="M 882.5,593.5 C 862.326,593.17 842.326,593.503 822.5,594.5C 821.244,594.539 820.244,594.039 819.5,593C 840.671,592.171 861.671,592.337 882.5,593.5 Z"/></g>
<g><path style="opacity:1" fill="#8c8281" d="M 1374.5,602.5 C 1411.42,612.982 1448.42,623.315 1485.5,633.5C 1483.23,639.656 1481.56,645.989 1480.5,652.5C 1443.53,641.845 1406.53,631.178 1369.5,620.5C 1370.86,614.401 1372.52,608.401 1374.5,602.5 Z"/></g>
<g><path style="opacity:1" fill="#6565a8" d="M 558.5,616.5 C 558.5,617.833 558.5,619.167 558.5,620.5C 574.833,620.5 591.167,620.5 607.5,620.5C 591.008,621.497 574.342,621.83 557.5,621.5C 557.216,619.585 557.549,617.919 558.5,616.5 Z"/></g>
<g><path style="opacity:1" fill="#514843" d="M 1369.5,620.5 C 1406.53,631.178 1443.53,641.845 1480.5,652.5C 1484.93,654.359 1486.43,657.692 1485,662.5C 1482.59,665.62 1479.43,666.953 1475.5,666.5C 1439.65,655.924 1403.65,645.591 1367.5,635.5C 1358.92,632.531 1357.59,627.697 1363.5,621C 1365.47,620.505 1367.47,620.338 1369.5,620.5 Z"/></g>
<g><path style="opacity:1" fill="#8d8382" d="M 1367.5,635.5 C 1403.65,645.591 1439.65,655.924 1475.5,666.5C 1471.72,669.228 1467.72,671.728 1463.5,674C 1457.57,675.471 1451.57,675.804 1445.5,675C 1422.44,668.978 1399.77,661.978 1377.5,654C 1371.67,649.178 1368.34,643.011 1367.5,635.5 Z"/></g>
<g><path style="opacity:0.994" fill="#fec50f" d="M 297.5,661.5 C 297.809,678.628 306.142,689.462 322.5,694C 346.833,694.667 371.167,694.667 395.5,694C 400.668,692.946 405.501,691.112 410,688.5C 414.082,691.289 418.582,693.122 423.5,694C 511.833,694.667 600.167,694.667 688.5,694C 694.191,690.822 699.858,690.822 705.5,694C 818.526,694.471 931.526,694.471 1044.5,694C 1057.29,691.949 1065.62,684.782 1069.5,672.5C 1142.18,673.283 1214.84,674.616 1287.5,676.5C 1265.11,700.22 1243.11,724.22 1221.5,748.5C 1212.83,757.173 1204.49,766.173 1196.5,775.5C 1189.19,783.92 1181.52,792.087 1173.5,800C 784.664,806.169 395.997,812.669 7.5,819.5C 4.83333,819.5 2.16667,819.5 -0.5,819.5C -0.5,817.833 -0.5,816.167 -0.5,814.5C 12.1021,762.75 24.1021,710.75 35.5,658.5C 122.832,659.64 210.165,660.64 297.5,661.5 Z"/></g>
<g><path style="opacity:1" fill="#faf9f8" d="M 282.5,710.5 C 287.267,710.191 291.934,710.691 296.5,712C 299.635,713.266 301.302,715.599 301.5,719C 301.131,723.34 299.631,727.173 297,730.5C 296.94,735.39 295.94,740.057 294,744.5C 292.005,746.747 289.505,747.747 286.5,747.5C 284.744,759.453 281.91,771.12 278,782.5C 272.098,789.523 264.598,792.023 255.5,790C 250.077,787.323 248.41,783.156 250.5,777.5C 245.826,775.651 241.159,775.484 236.5,777C 227.024,779.343 220.19,776.177 216,767.5C 215.027,769.392 214.36,771.392 214,773.5C 213.097,774.701 211.931,775.535 210.5,776C 206.11,776.772 201.777,776.606 197.5,775.5C 189.503,778.872 182.17,777.872 175.5,772.5C 174.636,774.197 173.303,775.363 171.5,776C 160.833,776.667 150.167,776.667 139.5,776C 136.426,774.022 134.759,771.188 134.5,767.5C 135.581,761.093 136.915,754.76 138.5,748.5C 136.278,748.178 134.444,748.845 133,750.5C 130.827,757.361 129.161,764.361 128,771.5C 127.167,773.667 125.667,775.167 123.5,776C 113.833,775.333 104.167,775.333 94.5,776C 90.9897,773.831 88.823,770.664 88,766.5C 87.6126,770.928 85.4459,774.094 81.5,776C 77.1667,776.667 72.8333,776.667 68.5,776C 64.6719,772.736 63.5053,768.569 65,763.5C 67.8722,748.806 70.8722,734.139 74,719.5C 74.8333,717.333 76.3333,715.833 78.5,715C 82.8333,714.333 87.1667,714.333 91.5,715C 94,716.167 95.8333,718 97,720.5C 102.237,714.739 108.737,712.905 116.5,715C 121.244,717.598 122.578,721.431 120.5,726.5C 122.5,726.833 124.5,727.167 126.5,727.5C 131.545,726.572 136.545,726.572 141.5,727.5C 144.503,715.073 152.337,710.739 165,714.5C 170.939,714.377 176.772,714.877 182.5,716C 183.701,716.903 184.535,718.069 185,719.5C 185.175,722.95 185.342,726.283 185.5,729.5C 191.874,725.982 198.374,725.648 205,728.5C 209.623,727.215 214.29,727.215 219,728.5C 219.873,728.265 220.707,727.931 221.5,727.5C 222.737,720.463 226.903,717.463 234,718.5C 241.326,717.227 244.826,720.227 244.5,727.5C 245.5,727.5 246.5,727.5 247.5,727.5C 247.312,715.199 253.312,710.365 265.5,713C 267.976,714.309 269.976,716.142 271.5,718.5C 274.671,714.973 278.337,712.307 282.5,710.5 Z"/></g>
<g><path style="opacity:1" fill="#f9f9f7" d="M 611.5,710.5 C 617.402,709.962 623.068,710.795 628.5,713C 630.478,716.933 630.978,721.1 630,725.5C 629.218,728.076 627.718,730.076 625.5,731.5C 627.833,740.504 624.667,746.504 616,749.5C 614.175,759.958 611.842,770.292 609,780.5C 603.385,788.932 595.552,792.098 585.5,790C 582.943,789.315 581.109,787.815 580,785.5C 579.505,782.469 579.671,779.469 580.5,776.5C 575.874,777.3 572.04,775.966 569,772.5C 559.584,778.339 549.75,779.006 539.5,774.5C 534.329,776.431 528.995,776.931 523.5,776C 521.36,775.027 519.693,773.527 518.5,771.5C 515.846,775.741 512.013,777.408 507,776.5C 501.686,777.519 498.019,775.519 496,770.5C 485.921,778.328 475.088,779.494 463.5,774C 461.316,771.984 459.316,769.817 457.5,767.5C 451.473,775.294 443.473,778.627 433.5,777.5C 433.765,781.962 432.432,785.795 429.5,789C 414.352,793.725 408.519,788.559 412,773.5C 402.379,778.789 392.712,778.789 383,773.5C 375.25,777.141 367.083,778.308 358.5,777C 355.302,776.152 352.469,774.652 350,772.5C 349.167,774 348,775.167 346.5,776C 333.45,780.562 326.617,776.062 326,762.5C 324.875,765.784 323.875,769.117 323,772.5C 322.167,774 321,775.167 319.5,776C 314.833,776.667 310.167,776.667 305.5,776C 301.874,773.749 300.707,770.582 302,766.5C 305.128,751.191 308.128,735.858 311,720.5C 312.167,718 314,716.167 316.5,715C 325.895,714.114 335.228,714.447 344.5,716C 351.31,718.978 355.31,724.145 356.5,731.5C 364.208,726.327 372.541,725.16 381.5,728C 384.579,729.248 387.246,731.081 389.5,733.5C 399.415,725.377 410.081,724.377 421.5,730.5C 422.646,729.855 423.646,729.022 424.5,728C 429.222,727.223 433.889,727.39 438.5,728.5C 448.394,724.354 456.394,726.687 462.5,735.5C 471.241,726.631 481.575,724.131 493.5,728C 497.241,729.738 500.408,732.238 503,735.5C 504.056,729.61 507.556,726.943 513.5,727.5C 516.042,727.586 518.542,727.92 521,728.5C 530.505,724.308 538.338,726.308 544.5,734.5C 550.62,727.448 558.287,724.948 567.5,727C 570.798,727.487 573.798,728.653 576.5,730.5C 577.325,726.878 577.825,723.211 578,719.5C 581.123,713.004 586.29,710.504 593.5,712C 596.916,713.25 599.583,715.417 601.5,718.5C 604.499,715.344 607.832,712.678 611.5,710.5 Z"/></g>
<g><path style="opacity:1" fill="#f9f9f7" d="M 1152.5,710.5 C 1156.85,710.334 1161.18,710.501 1165.5,711C 1169.83,712.161 1171.83,714.995 1171.5,719.5C 1171.64,724.313 1169.97,728.313 1166.5,731.5C 1167.66,736.717 1166.66,741.55 1163.5,746C 1161.34,746.912 1159.17,747.745 1157,748.5C 1155.43,759.013 1153.1,769.347 1150,779.5C 1144.59,789.116 1136.42,792.616 1125.5,790C 1123.33,789.167 1121.83,787.667 1121,785.5C 1120.5,782.518 1120.34,779.518 1120.5,776.5C 1117.45,776.636 1114.45,776.302 1111.5,775.5C 1104.17,778.566 1097.17,778.066 1090.5,774C 1089.04,772.255 1087.71,770.422 1086.5,768.5C 1085.8,772.033 1083.8,774.533 1080.5,776C 1071.44,775.47 1062.44,775.804 1053.5,777C 1047.47,774.309 1043.64,769.809 1042,763.5C 1039.75,766.328 1037.75,769.328 1036,772.5C 1034.79,774.049 1033.29,775.215 1031.5,776C 1026.5,776.667 1021.5,776.667 1016.5,776C 1014.33,775.167 1012.83,773.667 1012,771.5C 1011.79,768.377 1011.13,765.377 1010,762.5C 1002,775.617 990.496,780.117 975.5,776C 971.745,774.412 968.745,771.912 966.5,768.5C 965.028,771.805 962.695,774.305 959.5,776C 955.167,776.667 950.833,776.667 946.5,776C 944.376,774.878 942.543,773.378 941,771.5C 939.792,767.374 938.292,763.374 936.5,759.5C 935.068,763.013 934.235,766.68 934,770.5C 932.833,773 931,774.833 928.5,776C 922.877,777.276 917.71,776.443 913,773.5C 912.097,774.701 910.931,775.535 909.5,776C 905.167,776.667 900.833,776.667 896.5,776C 893.833,774 892.5,771.333 892.5,768C 894.666,756.845 896.832,745.678 899,734.5C 899.36,732.579 900.194,730.912 901.5,729.5C 899.56,715.612 905.56,710.112 919.5,713C 921.344,714.182 923.177,715.349 925,716.5C 939.459,710.642 948.126,715.308 951,730.5C 952.251,726.918 953.251,723.251 954,719.5C 954.465,718.069 955.299,716.903 956.5,716C 961.807,714.056 967.14,714.056 972.5,716C 973.126,716.75 973.626,717.584 974,718.5C 974.212,723.258 974.378,727.925 974.5,732.5C 985.474,724.876 996.641,724.543 1008,731.5C 1009.17,730.333 1010.33,729.167 1011.5,728C 1016.17,727.333 1020.83,727.333 1025.5,728C 1028.47,730.448 1029.97,733.614 1030,737.5C 1030.36,733.047 1032.53,729.88 1036.5,728C 1042.72,726.755 1048.56,727.588 1054,730.5C 1060.79,726.104 1067.96,725.437 1075.5,728.5C 1080.17,727.167 1084.83,727.167 1089.5,728.5C 1092.68,727.784 1094.18,725.784 1094,722.5C 1095.17,721.333 1096.33,720.167 1097.5,719C 1101.83,718.333 1106.17,718.333 1110.5,719C 1113.84,720.831 1115.84,723.665 1116.5,727.5C 1118.74,712.465 1126.57,708.465 1140,715.5C 1140.67,716.833 1141.33,718.167 1142,719.5C 1144.47,715.199 1147.97,712.199 1152.5,710.5 Z"/></g>
<g><path style="opacity:1" fill="#faf9f7" d="M 853.5,710.5 C 866.602,708.918 871.268,714.251 867.5,726.5C 867.833,727.167 868.167,727.833 868.5,728.5C 873.111,727.39 877.778,727.223 882.5,728C 884.333,728.5 885.5,729.667 886,731.5C 886.79,734.634 886.457,737.634 885,740.5C 881.318,744.015 877.818,747.682 874.5,751.5C 876.393,756.287 878.56,760.953 881,765.5C 881.999,773.999 878.166,777.665 869.5,776.5C 864.993,777.267 861.326,775.933 858.5,772.5C 855.897,775.916 852.397,777.249 848,776.5C 844.483,776.642 841.15,775.976 838,774.5C 831.955,777.118 825.955,777.118 820,774.5C 816.674,782.493 810.841,787.659 802.5,790C 796.833,790.667 791.167,790.667 785.5,790C 780.013,788.849 777.013,785.515 776.5,780C 777.063,776.704 778.063,773.538 779.5,770.5C 779.101,768.803 778.601,767.137 778,765.5C 777.584,759.563 777.417,753.896 777.5,748.5C 775.854,749.779 774.687,751.445 774,753.5C 773.05,759.919 771.716,766.252 770,772.5C 768.786,774.049 767.286,775.215 765.5,776C 761.167,776.667 756.833,776.667 752.5,776C 751.601,774.764 750.434,773.93 749,773.5C 741.25,777.141 733.083,778.308 724.5,777C 720.49,775.657 716.99,773.491 714,770.5C 711.516,775.409 707.516,777.409 702,776.5C 696.492,777.584 692.826,775.584 691,770.5C 689.833,773 688,774.833 685.5,776C 680.245,777.047 675.245,776.547 670.5,774.5C 669.692,774.808 669.025,775.308 668.5,776C 663.167,776.167 657.833,776.333 652.5,776.5C 646.395,776.624 640.395,776.124 634.5,775C 632.408,773.147 631.408,770.814 631.5,768C 634.365,751.343 637.865,734.843 642,718.5C 643.214,716.951 644.714,715.785 646.5,715C 656.833,714.333 667.167,714.333 677.5,715C 678.931,715.465 680.097,716.299 681,717.5C 681.498,720.817 681.665,724.15 681.5,727.5C 685.39,727.272 689.224,727.606 693,728.5C 703.578,724.082 711.745,726.749 717.5,736.5C 726.586,726.199 737.586,723.699 750.5,729C 752,730.5 753.5,732 755,733.5C 756.122,731.376 757.622,729.543 759.5,728C 767.503,727.266 775.503,726.933 783.5,727C 785.664,727.914 787.664,729.081 789.5,730.5C 796.108,726.073 803.108,725.406 810.5,728.5C 814.777,727.394 819.11,727.228 823.5,728C 824.333,728.833 825.167,729.667 826,730.5C 826.333,726.833 826.667,723.167 827,719.5C 832.01,711.073 838.843,709.406 847.5,714.5C 849.565,713.143 851.565,711.81 853.5,710.5 Z"/></g>
<g><path style="opacity:1" fill="#37302f" d="M 284.5,716.5 C 287.518,716.335 290.518,716.502 293.5,717C 295.806,718.793 296.139,720.96 294.5,723.5C 291.634,724.208 288.8,724.875 286,725.5C 284.659,728.022 283.826,730.689 283.5,733.5C 285.833,733.5 288.167,733.5 290.5,733.5C 291.48,740.38 288.48,743.047 281.5,741.5C 279.833,753.67 277.333,765.67 274,777.5C 269.944,784.026 264.278,786.026 257,783.5C 256.333,781.833 256.333,780.167 257,778.5C 259.133,776.862 261.633,776.029 264.5,776C 268.243,764.794 270.909,753.294 272.5,741.5C 270.833,741.5 269.167,741.5 267.5,741.5C 266.165,735.471 268.498,732.804 274.5,733.5C 274.534,725.748 277.868,720.081 284.5,716.5 Z"/></g>
<g><path style="opacity:1" fill="#37302f" d="M 613.5,716.5 C 616.518,716.335 619.518,716.502 622.5,717C 624.806,718.793 625.139,720.96 623.5,723.5C 620.634,724.208 617.8,724.875 615,725.5C 613.659,728.022 612.826,730.689 612.5,733.5C 614.833,733.5 617.167,733.5 619.5,733.5C 620.48,740.38 617.48,743.047 610.5,741.5C 608.833,753.67 606.333,765.67 603,777.5C 598.944,784.026 593.278,786.026 586,783.5C 585.333,781.833 585.333,780.167 586,778.5C 588.133,776.862 590.633,776.029 593.5,776C 597.243,764.794 599.909,753.294 601.5,741.5C 599.833,741.5 598.167,741.5 596.5,741.5C 595.165,735.471 597.498,732.804 603.5,733.5C 603.534,725.748 606.868,720.081 613.5,716.5 Z"/></g>
<g><path style="opacity:1" fill="#37302f" d="M 1154.5,716.5 C 1157.52,716.335 1160.52,716.502 1163.5,717C 1165.81,718.793 1166.14,720.96 1164.5,723.5C 1161.63,724.208 1158.8,724.875 1156,725.5C 1154.66,728.022 1153.83,730.689 1153.5,733.5C 1155.83,733.5 1158.17,733.5 1160.5,733.5C 1161.48,740.38 1158.48,743.047 1151.5,741.5C 1149.83,753.67 1147.33,765.67 1144,777.5C 1139.94,784.026 1134.28,786.026 1127,783.5C 1126.33,781.833 1126.33,780.167 1127,778.5C 1129.13,776.862 1131.63,776.029 1134.5,776C 1138.24,764.794 1140.91,753.294 1142.5,741.5C 1140.83,741.5 1139.17,741.5 1137.5,741.5C 1136.16,735.471 1138.5,732.804 1144.5,733.5C 1144.53,725.748 1147.87,720.081 1154.5,716.5 Z"/></g>
<g><path style="opacity:1" fill="#383130" d="M 854.5,716.5 C 856.527,716.338 858.527,716.505 860.5,717C 861.428,717.388 862.095,718.055 862.5,719C 859.956,728.379 858.456,737.879 858,747.5C 862.283,743.095 866.45,738.595 870.5,734C 873.817,733.502 877.15,733.335 880.5,733.5C 880.649,734.552 880.483,735.552 880,736.5C 875.434,741.066 870.934,745.566 866.5,750C 868.864,755.228 871.364,760.394 874,765.5C 874.494,767.134 874.66,768.801 874.5,770.5C 871.223,770.784 868.057,770.451 865,769.5C 862.435,763.37 859.602,757.37 856.5,751.5C 855.162,757.535 853.662,763.535 852,769.5C 849.281,770.444 846.448,770.777 843.5,770.5C 845.904,752.145 849.571,734.145 854.5,716.5 Z"/></g>
<g><path style="opacity:1" fill="#383130" d="M 256.5,718.5 C 265.929,717.079 267.929,720.246 262.5,728C 254.24,729.246 252.24,726.079 256.5,718.5 Z"/></g>
<g><path style="opacity:1" fill="#3a3332" d="M 586.5,718.5 C 593.107,716.749 595.607,719.082 594,725.5C 591.177,728.571 587.844,729.238 584,727.5C 582.93,723.858 583.764,720.858 586.5,718.5 Z"/></g>
<g><path style="opacity:1" fill="#3a3332" d="M 835.5,718.5 C 842.107,716.749 844.607,719.082 843,725.5C 840.177,728.571 836.844,729.238 833,727.5C 831.93,723.858 832.764,720.858 835.5,718.5 Z"/></g>
<g><path style="opacity:1" fill="#3a3332" d="M 910.5,718.5 C 917.107,716.749 919.607,719.082 918,725.5C 915.177,728.571 911.844,729.238 908,727.5C 906.93,723.858 907.764,720.858 910.5,718.5 Z"/></g>
<g><path style="opacity:1" fill="#383130" d="M 1126.5,718.5 C 1135.93,717.079 1137.93,720.246 1132.5,728C 1124.24,729.246 1122.24,726.079 1126.5,718.5 Z"/></g>
<g><path style="opacity:1" fill="#383130" d="M 80.5,720.5 C 83.5,720.5 86.5,720.5 89.5,720.5C 88.3316,727.828 87.4983,735.161 87,742.5C 92.7926,735.039 98.9593,727.872 105.5,721C 108.5,720.333 111.5,720.333 114.5,721C 114.957,721.414 115.291,721.914 115.5,722.5C 109.136,729.86 102.802,737.193 96.5,744.5C 99.1155,751.732 102.282,758.732 106,765.5C 106.494,767.134 106.66,768.801 106.5,770.5C 103.102,770.82 99.7683,770.487 96.5,769.5C 93,761.833 89.5,754.167 86,746.5C 83.8587,754.062 81.8587,761.729 80,769.5C 76.9433,770.451 73.7766,770.784 70.5,770.5C 73.4544,753.728 76.7878,737.061 80.5,720.5 Z"/></g>
<g><path style="opacity:1" fill="#362f2e" d="M 151.5,720.5 C 160.833,720.5 170.167,720.5 179.5,720.5C 179.534,723.199 178.867,725.699 177.5,728C 171.141,728.169 164.807,728.669 158.5,729.5C 157.319,733.072 156.652,736.738 156.5,740.5C 161.833,740.5 167.167,740.5 172.5,740.5C 172.78,743.272 172.113,745.772 170.5,748C 165.136,748.171 159.802,748.671 154.5,749.5C 153.089,753.713 152.422,758.046 152.5,762.5C 158.5,762.5 164.5,762.5 170.5,762.5C 170.708,764.92 170.374,767.253 169.5,769.5C 160.19,770.498 150.857,770.832 141.5,770.5C 142.656,758.215 144.656,746.048 147.5,734C 148.025,729.171 149.358,724.671 151.5,720.5 Z"/></g>
<g><path style="opacity:1" fill="#373030" d="M 318.5,720.5 C 326.571,720.137 334.571,720.637 342.5,722C 346.907,723.652 349.241,726.818 349.5,731.5C 348.785,739.383 344.785,744.883 337.5,748C 339.049,749.214 340.215,750.714 341,752.5C 341.977,757.886 343.144,763.22 344.5,768.5C 344.291,769.086 343.957,769.586 343.5,770C 340.5,770.667 337.5,770.667 334.5,770C 333.007,764.183 331.507,758.35 330,752.5C 327.581,750.415 324.747,749.415 321.5,749.5C 320.445,756.274 318.945,762.941 317,769.5C 313.943,770.451 310.777,770.784 307.5,770.5C 310.163,753.51 313.829,736.844 318.5,720.5 Z"/></g>
<g><path style="opacity:1" fill="#362f2e" d="M 648.5,720.5 C 657.833,720.5 667.167,720.5 676.5,720.5C 676.534,723.199 675.867,725.699 674.5,728C 668.141,728.169 661.807,728.669 655.5,729.5C 654.319,733.072 653.652,736.738 653.5,740.5C 658.833,740.5 664.167,740.5 669.5,740.5C 669.78,743.272 669.113,745.772 667.5,748C 662.136,748.171 656.802,748.671 651.5,749.5C 650.089,753.713 649.422,758.046 649.5,762.5C 655.5,762.5 661.5,762.5 667.5,762.5C 667.708,764.92 667.374,767.253 666.5,769.5C 657.19,770.498 647.857,770.832 638.5,770.5C 639.656,758.215 641.656,746.048 644.5,734C 645.025,729.171 646.358,724.671 648.5,720.5 Z"/></g>
<g><path style="opacity:1" fill="#37302f" d="M 929.5,720.5 C 932.85,720.335 936.183,720.502 939.5,721C 940.308,721.308 940.975,721.808 941.5,722.5C 945.834,733.67 949.668,745.003 953,756.5C 955.074,744.796 957.408,733.129 960,721.5C 962.719,720.556 965.552,720.223 968.5,720.5C 965.992,736.209 963.158,751.876 960,767.5C 956.743,770.428 952.909,771.262 948.5,770C 943.424,757.779 938.924,745.279 935,732.5C 932.797,745.19 929.963,757.69 926.5,770C 923.901,770.769 921.401,770.602 919,769.5C 921.266,755.164 923.933,740.831 927,726.5C 927.236,724.189 928.069,722.189 929.5,720.5 Z"/></g>
<g><path style="opacity:1" fill="#37302f" d="M 230.5,724.5 C 233.167,724.5 235.833,724.5 238.5,724.5C 238.296,727.518 237.963,730.518 237.5,733.5C 245.507,733.334 253.507,733.5 261.5,734C 260.269,745.837 258.102,757.671 255,769.5C 252.281,770.444 249.448,770.777 246.5,770.5C 247.205,760.809 248.872,751.309 251.5,742C 246.177,741.501 240.844,741.334 235.5,741.5C 233.684,748.403 232.851,755.403 233,762.5C 235.432,763.45 237.932,763.45 240.5,762.5C 239.623,770.287 235.289,773.12 227.5,771C 224.066,769.471 222.4,766.804 222.5,763C 224.086,755.905 225.086,748.738 225.5,741.5C 224.167,741.5 222.833,741.5 221.5,741.5C 220.165,735.471 222.498,732.804 228.5,733.5C 228.7,730.37 229.366,727.37 230.5,724.5 Z"/></g>
<g><path style="opacity:1" fill="#37302f" d="M 1100.5,724.5 C 1103.17,724.5 1105.83,724.5 1108.5,724.5C 1108.3,727.518 1107.96,730.518 1107.5,733.5C 1115.51,733.334 1123.51,733.5 1131.5,734C 1130.27,745.837 1128.1,757.671 1125,769.5C 1122.28,770.444 1119.45,770.777 1116.5,770.5C 1117.21,760.809 1118.87,751.309 1121.5,742C 1116.18,741.501 1110.84,741.334 1105.5,741.5C 1103.68,748.403 1102.85,755.403 1103,762.5C 1105.43,763.45 1107.93,763.45 1110.5,762.5C 1109.62,770.287 1105.29,773.12 1097.5,771C 1094.07,769.471 1092.4,766.804 1092.5,763C 1094.09,755.905 1095.09,748.738 1095.5,741.5C 1094.17,741.5 1092.83,741.5 1091.5,741.5C 1090.16,735.471 1092.5,732.804 1098.5,733.5C 1098.7,730.37 1099.37,727.37 1100.5,724.5 Z"/></g>
<g><path style="opacity:1" fill="#f9f9f9" d="M 325.5,728.5 C 329.911,728.021 334.078,728.688 338,730.5C 338.35,740.297 333.516,744.297 323.5,742.5C 324.037,737.814 324.704,733.147 325.5,728.5 Z"/></g>
<g><path style="opacity:1" fill="#393231" d="M 134.5,732.5 C 141.594,731.922 143.427,734.922 140,741.5C 137.958,741.818 135.791,741.985 133.5,742C 131,743.167 129.167,745 128,747.5C 125.75,754.746 123.75,762.079 122,769.5C 119.281,770.444 116.448,770.777 113.5,770.5C 114.955,758.388 117.122,746.388 120,734.5C 122.381,733.565 124.881,733.232 127.5,733.5C 127.34,735.199 127.506,736.866 128,738.5C 130.063,736.266 132.229,734.266 134.5,732.5 Z"/></g>
<g><path style="opacity:1" fill="#362f2e" d="M 192.5,732.5 C 198.223,731.45 202.89,733.117 206.5,737.5C 207.262,736.372 207.929,735.205 208.5,734C 210.81,733.503 213.143,733.337 215.5,733.5C 213.295,745.858 210.962,758.192 208.5,770.5C 205.753,770.813 203.086,770.48 200.5,769.5C 201.485,767.902 201.651,766.235 201,764.5C 195.44,771.939 188.773,773.273 181,768.5C 175.158,753.196 178.992,741.196 192.5,732.5 Z"/></g>
<g><path style="opacity:1" fill="#373130" d="M 367.5,732.5 C 374.49,731.44 380.323,733.44 385,738.5C 386.151,742.829 385.318,746.662 382.5,750C 375.673,753.904 368.34,755.404 360.5,754.5C 359.935,763.077 363.935,766.244 372.5,764C 374.871,763.265 377.205,762.432 379.5,761.5C 380.408,764.298 379.741,766.798 377.5,769C 352.785,774.947 345.285,766.114 355,742.5C 358.191,737.837 362.358,734.503 367.5,732.5 Z"/></g>
<g><path style="opacity:1" fill="#37302f" d="M 402.5,732.5 C 407.412,732.063 412.078,732.896 416.5,735C 417.333,737.081 417.333,739.248 416.5,741.5C 412.289,739.922 407.956,739.422 403.5,740C 401.398,741.733 401.065,743.733 402.5,746C 404.956,747.711 407.623,749.044 410.5,750C 415.707,755.765 415.707,761.598 410.5,767.5C 403.484,772.167 396.151,772.667 388.5,769C 387.074,766.289 387.408,763.789 389.5,761.5C 394.839,765.331 400.006,765.331 405,761.5C 405.667,760.5 405.667,759.5 405,758.5C 400.821,755.743 396.821,752.743 393,749.5C 391.53,741.097 394.696,735.431 402.5,732.5 Z"/></g>
<g><path style="opacity:1" fill="#383130" d="M 443.5,732.5 C 449.988,731.181 454.488,733.514 457,739.5C 459.229,751.145 456.062,760.979 447.5,769C 441.252,772.724 435.419,772.224 430,767.5C 428.197,772.682 427.364,778.016 427.5,783.5C 424.214,784.207 420.881,784.54 417.5,784.5C 420.085,767.739 423.252,751.072 427,734.5C 429.381,733.565 431.881,733.232 434.5,733.5C 434.338,735.527 434.505,737.527 435,739.5C 437.416,736.577 440.25,734.243 443.5,732.5 Z"/></g>
<g><path style="opacity:1" fill="#383130" d="M 478.5,732.5 C 484.852,731.715 490.686,733.048 496,736.5C 501.516,749.59 498.682,760.423 487.5,769C 479.604,772.822 472.104,772.322 465,767.5C 460.141,758.197 460.808,749.197 467,740.5C 470.482,737.161 474.315,734.494 478.5,732.5 Z"/></g>
<g><path style="opacity:1" fill="#383130" d="M 526.5,732.5 C 530.463,732.089 534.13,732.922 537.5,735C 538.998,737.417 539.665,740.083 539.5,743C 538.379,751.893 536.879,760.726 535,769.5C 531.943,770.451 528.777,770.784 525.5,770.5C 527.341,762.958 528.674,755.291 529.5,747.5C 530.238,740.13 527.571,738.63 521.5,743C 520.213,744.41 519.046,745.91 518,747.5C 515.75,754.746 513.75,762.079 512,769.5C 509.281,770.444 506.448,770.777 503.5,770.5C 504.955,758.388 507.122,746.388 510,734.5C 512.381,733.565 514.881,733.232 517.5,733.5C 517.34,735.199 517.506,736.866 518,738.5C 520.736,736.248 523.569,734.248 526.5,732.5 Z"/></g>
<g><path style="opacity:1" fill="#37302f" d="M 557.5,732.5 C 562.412,732.063 567.078,732.896 571.5,735C 572.333,737.081 572.333,739.248 571.5,741.5C 567.289,739.922 562.956,739.422 558.5,740C 556.398,741.733 556.065,743.733 557.5,746C 559.956,747.711 562.623,749.044 565.5,750C 570.707,755.765 570.707,761.598 565.5,767.5C 558.484,772.167 551.151,772.667 543.5,769C 542.074,766.289 542.408,763.789 544.5,761.5C 549.839,765.331 555.006,765.331 560,761.5C 560.667,760.5 560.667,759.5 560,758.5C 555.821,755.743 551.821,752.743 548,749.5C 546.53,741.097 549.696,735.431 557.5,732.5 Z"/></g>
<g><path style="opacity:1" fill="#383130" d="M 698.5,732.5 C 702.463,732.089 706.13,732.922 709.5,735C 710.998,737.417 711.665,740.083 711.5,743C 710.379,751.893 708.879,760.726 707,769.5C 703.943,770.451 700.777,770.784 697.5,770.5C 699.341,762.958 700.674,755.291 701.5,747.5C 702.238,740.13 699.571,738.63 693.5,743C 692.213,744.41 691.046,745.91 690,747.5C 687.75,754.746 685.75,762.079 684,769.5C 681.281,770.444 678.448,770.777 675.5,770.5C 676.955,758.388 679.122,746.388 682,734.5C 684.381,733.565 686.881,733.232 689.5,733.5C 689.34,735.199 689.506,736.866 690,738.5C 692.736,736.248 695.569,734.248 698.5,732.5 Z"/></g>
<g><path style="opacity:1" fill="#373130" d="M 733.5,732.5 C 740.49,731.44 746.323,733.44 751,738.5C 752.151,742.829 751.318,746.662 748.5,750C 741.673,753.904 734.34,755.404 726.5,754.5C 725.935,763.077 729.935,766.244 738.5,764C 740.871,763.265 743.205,762.432 745.5,761.5C 746.408,764.298 745.741,766.798 743.5,769C 718.785,774.947 711.285,766.114 721,742.5C 724.191,737.837 728.358,734.503 733.5,732.5 Z"/></g>
<g><path style="opacity:1" fill="#393231" d="M 776.5,732.5 C 783.594,731.922 785.427,734.922 782,741.5C 779.958,741.818 777.791,741.985 775.5,742C 773,743.167 771.167,745 770,747.5C 767.75,754.746 765.75,762.079 764,769.5C 761.281,770.444 758.448,770.777 755.5,770.5C 756.955,758.388 759.122,746.388 762,734.5C 764.381,733.565 766.881,733.232 769.5,733.5C 769.34,735.199 769.506,736.866 770,738.5C 772.063,736.266 774.229,734.266 776.5,732.5 Z"/></g>
<g><path style="opacity:1" fill="#362f2e" d="M 798.5,732.5 C 804.223,731.45 808.89,733.117 812.5,737.5C 813.262,736.372 813.929,735.205 814.5,734C 816.81,733.503 819.143,733.337 821.5,733.5C 819.161,748.363 815.994,763.029 812,777.5C 807.369,782.626 801.535,784.959 794.5,784.5C 791.001,784.599 787.668,783.932 784.5,782.5C 782.906,779.447 783.573,777.114 786.5,775.5C 792.585,778.499 798.418,778.166 804,774.5C 805.471,771.621 806.138,768.621 806,765.5C 800.719,771.844 794.552,773.01 787.5,769C 782.709,757.899 783.876,747.399 791,737.5C 793.479,735.686 795.979,734.019 798.5,732.5 Z"/></g>
<g><path style="opacity:1" fill="#383130" d="M 987.5,732.5 C 993.852,731.715 999.686,733.048 1005,736.5C 1010.52,749.59 1007.68,760.423 996.5,769C 988.604,772.822 981.104,772.322 974,767.5C 969.141,758.197 969.808,749.197 976,740.5C 979.482,737.161 983.315,734.494 987.5,732.5 Z"/></g>
<g><path style="opacity:1" fill="#362f2e" d="M 1063.5,732.5 C 1069.22,731.45 1073.89,733.117 1077.5,737.5C 1078.26,736.372 1078.93,735.205 1079.5,734C 1081.81,733.503 1084.14,733.337 1086.5,733.5C 1084.29,745.858 1081.96,758.192 1079.5,770.5C 1076.75,770.813 1074.09,770.48 1071.5,769.5C 1072.48,767.902 1072.65,766.235 1072,764.5C 1066.44,771.939 1059.77,773.273 1052,768.5C 1046.16,753.196 1049.99,741.196 1063.5,732.5 Z"/></g>
<g><path style="opacity:1" fill="#383130" d="M 582.5,733.5 C 585.572,733.183 588.572,733.516 591.5,734.5C 589.015,746.43 586.349,758.263 583.5,770C 580.854,770.497 578.187,770.664 575.5,770.5C 576.939,757.972 579.272,745.639 582.5,733.5 Z"/></g>
<g><path style="opacity:1" fill="#383130" d="M 831.5,733.5 C 834.572,733.183 837.572,733.516 840.5,734.5C 838.015,746.43 835.349,758.263 832.5,770C 829.854,770.497 827.187,770.664 824.5,770.5C 825.939,757.972 828.272,745.639 831.5,733.5 Z"/></g>
<g><path style="opacity:1" fill="#383130" d="M 906.5,733.5 C 909.572,733.183 912.572,733.516 915.5,734.5C 913.015,746.43 910.349,758.263 907.5,770C 904.854,770.497 902.187,770.664 899.5,770.5C 900.939,757.972 903.272,745.639 906.5,733.5 Z"/></g>
<g><path style="opacity:1" fill="#37302f" d="M 1014.5,733.5 C 1017.45,733.223 1020.28,733.556 1023,734.5C 1024.18,742.869 1025.51,751.202 1027,759.5C 1032.01,751.815 1035.67,743.481 1038,734.5C 1041.06,733.549 1044.22,733.216 1047.5,733.5C 1044.56,747.205 1038.56,759.372 1029.5,770C 1025.58,770.793 1021.74,770.626 1018,769.5C 1017.04,758.585 1015.54,747.752 1013.5,737C 1013.65,735.744 1013.98,734.577 1014.5,733.5 Z"/></g>
<g><path style="opacity:1" fill="#ffe083" d="M 174.5,735.5 C 175.946,734.387 177.613,734.22 179.5,735C 178.178,738.02 176.511,738.187 174.5,735.5 Z"/></g>
<g><path style="opacity:1" fill="#ffe082" d="M 671.5,735.5 C 672.568,734.566 673.901,734.232 675.5,734.5C 675.719,735.675 675.386,736.675 674.5,737.5C 673.482,736.807 672.482,736.141 671.5,735.5 Z"/></g>
<g><path style="opacity:1" fill="#ffc92b" d="M 111.5,736.5 C 111.86,742.887 110.693,749.221 108,755.5C 106.364,752.394 104.864,749.227 103.5,746C 105.988,742.679 108.655,739.512 111.5,736.5 Z"/></g>
<g><path style="opacity:1" fill="#f1f0f0" d="M 368.5,739.5 C 373.993,738.178 376.493,740.178 376,745.5C 371.908,748.126 367.408,749.126 362.5,748.5C 362.932,744.41 364.932,741.41 368.5,739.5 Z"/></g>
<g><path style="opacity:1" fill="#f1f0f0" d="M 734.5,739.5 C 739.993,738.178 742.493,740.178 742,745.5C 737.908,748.126 733.408,749.126 728.5,748.5C 728.932,744.41 730.932,741.41 734.5,739.5 Z"/></g>
<g><path style="opacity:1" fill="#f7f7f5" d="M 478.5,740.5 C 485.476,738.557 488.809,741.057 488.5,748C 488.554,752.505 487.387,756.672 485,760.5C 480.594,764.423 476.261,764.423 472,760.5C 470.671,752.653 472.838,745.987 478.5,740.5 Z"/></g>
<g><path style="opacity:1" fill="#f7f6f5" d="M 987.5,740.5 C 994.476,738.557 997.809,741.057 997.5,748C 997.554,752.505 996.387,756.672 994,760.5C 989.594,764.423 985.261,764.423 981,760.5C 979.671,752.653 981.838,745.987 987.5,740.5 Z"/></g>
<g><path style="opacity:1" fill="#f5f3f0" d="M 195.5,740.5 C 199.776,740.302 202.776,742.136 204.5,746C 203.495,750.875 201.661,755.375 199,759.5C 190.107,765.908 186.44,763.574 188,752.5C 189.149,747.545 191.649,743.545 195.5,740.5 Z"/></g>
<g><path style="opacity:1" fill="#f5f3f1" d="M 441.5,740.5 C 445.683,740.35 448.016,742.35 448.5,746.5C 447.902,751.46 446.402,756.127 444,760.5C 438.566,764.933 434.4,763.933 431.5,757.5C 432.56,750.363 435.894,744.696 441.5,740.5 Z"/></g>
<g><path style="opacity:1" fill="#f5f3f0" d="M 801.5,740.5 C 805.776,740.302 808.776,742.136 810.5,746C 809.495,750.875 807.661,755.375 805,759.5C 796.107,765.908 792.44,763.574 794,752.5C 794.764,747.284 797.264,743.284 801.5,740.5 Z"/></g>
<g><path style="opacity:1" fill="#f5f3f1" d="M 1066.5,740.5 C 1070.78,740.302 1073.78,742.136 1075.5,746C 1074.49,750.875 1072.66,755.375 1070,759.5C 1061.11,765.908 1057.44,763.574 1059,752.5C 1060.15,747.545 1062.65,743.545 1066.5,740.5 Z"/></g>
<g><path style="opacity:1" fill="#ffcc35" d="M 481.5,746.5 C 482.708,750.432 481.874,754.099 479,757.5C 478.121,753.438 478.954,749.771 481.5,746.5 Z"/></g>
<g><path style="opacity:1" fill="#ffcc38" d="M 989.5,747.5 C 991.137,751.289 990.304,754.622 987,757.5C 986.305,753.757 987.138,750.424 989.5,747.5 Z"/></g>
<g><path style="opacity:1" fill="#ffce3e" d="M 240.5,747.5 C 242.922,750.208 242.922,753.208 240.5,756.5C 239.357,753.502 239.357,750.502 240.5,747.5 Z"/></g>
<g><path style="opacity:1" fill="#ffcd39" d="M 1110.5,747.5 C 1111.5,747.5 1112.5,747.5 1113.5,747.5C 1112.91,750.127 1112.58,752.794 1112.5,755.5C 1111.32,755.719 1110.32,755.386 1109.5,754.5C 1110.37,752.253 1110.71,749.92 1110.5,747.5 Z"/></g>
<g><path style="opacity:1" fill="#ffdd72" d="M 159.5,754.5 C 163.555,754.176 167.555,754.509 171.5,755.5C 169.5,755.833 167.5,756.167 165.5,756.5C 163.048,756.461 161.048,755.794 159.5,754.5 Z"/></g>
<g><path style="opacity:1" fill="#ffd963" d="M 669.5,753.5 C 671.048,753.821 671.715,754.821 671.5,756.5C 666.456,756.827 661.456,756.494 656.5,755.5C 660.982,754.833 665.316,754.166 669.5,753.5 Z"/></g>
</svg>
